# xmcd
#
# Track frame offsets:
# 150
# 11663
# 25688
# 39923
# 53533
# 67207
# 81107
# 95003
# 109241
# 123437
# 137631
# 152763
# 166649
# 179219
# 194012
# 207112
# 222088
# 235255
# 249196
# 264791
# 279382
# 293416
# 310082
#
# Disc length: 4282 seconds
#
#
# Revision: 0
# Processed by: cddbd v1.5.2PL0 Copyright (c) Steve Scherf et al.
# Submitted via: FreeRIP 2.951 
#
DISCID=3a10b817
DTITLE=Bing Crosby - Pennies From Heaven
DYEAR=1900
DGENRE=
TTITLE0=Swing On A Star
TTITLE1=Last Roundup
TTITLE2=Moonlight Becomes You
TTITLE3=Where The Blue Of The Night
TTITLE4=Where The Blue Of The Night 2
TTITLE5=She Reminds Me Of You
TTITLE6=White Christmas
TTITLE7=Out Of Nowhere
TTITLE8=Love In Bloom
TTITLE9=Pennies From Heaven
TTITLE10=Did You Ever See A Dream Walking
TTITLE11=Please
TTITLE12=Stardust
TTITLE13=Thanks
TTITLE14=Sioux City Sue
TTITLE15=Beautiful Girl
TTITLE16=You Must Have Been A Beautiful Baby
TTITLE17=Please 2
TTITLE18=Just One More Chance
TTITLE19=Someday Sweetheart
TTITLE20=Sweet Georgia Brown
TTITLE21=I Surrender Dear
TTITLE22=You Belong To My Heart
EXTD=mule rip
EXTT0=
EXTT1=
EXTT2=
EXTT3=
EXTT4=
EXTT5=
EXTT6=
EXTT7=
EXTT8=
EXTT9=
EXTT10=
EXTT11=
EXTT12=
EXTT13=
EXTT14=
EXTT15=
EXTT16=
EXTT17=
EXTT18=
EXTT19=
EXTT20=
EXTT21=
EXTT22=
PLAYORDER=
